<?xml version="1.0" encoding="UTF-8" standalone="no"?>
<!-- Created with Inkscape (http://www.inkscape.org/) -->

<svg
   xmlns:dc="http://purl.org/dc/elements/1.1/"
   xmlns:cc="http://creativecommons.org/ns#"
   xmlns:rdf="http://www.w3.org/1999/02/22-rdf-syntax-ns#"
   xmlns:svg="http://www.w3.org/2000/svg"
   xmlns="http://www.w3.org/2000/svg"
   xmlns:sodipodi="http://sodipodi.sourceforge.net/DTD/sodipodi-0.dtd"
   xmlns:inkscape="http://www.inkscape.org/namespaces/inkscape"
   version="1.1"
   id="svg14756"
   xml:space="preserve"
   width="1056"
   height="816"
   viewBox="0 0 1056 816"
   sodipodi:docname="background-49-publicdomainvectors.org [Converted].svg"
   inkscape:version="0.92.4 (5da689c313, 2019-01-14)"><metadata
     id="metadata14762"><rdf:RDF><cc:Work
         rdf:about=""><dc:format>image/svg+xml</dc:format><dc:type
           rdf:resource="http://purl.org/dc/dcmitype/StillImage" /><dc:title></dc:title></cc:Work></rdf:RDF></metadata><defs
     id="defs14760"><clipPath
       clipPathUnits="userSpaceOnUse"
       id="clipPath14772"><path
         d="M 0,612 H 792 V 0 H 0 Z"
         id="path14770"
         inkscape:connector-curvature="0" /></clipPath></defs><sodipodi:namedview
     pagecolor="#ffffff"
     bordercolor="#666666"
     borderopacity="1"
     objecttolerance="10"
     gridtolerance="10"
     guidetolerance="10"
     inkscape:pageopacity="0"
     inkscape:pageshadow="2"
     inkscape:window-width="724"
     inkscape:window-height="480"
     id="namedview14758"
     showgrid="false"
     inkscape:zoom="0.28921569"
     inkscape:cx="528"
     inkscape:cy="408"
     inkscape:window-x="0"
     inkscape:window-y="0"
     inkscape:window-maximized="0"
     inkscape:current-layer="g14764" /><g
     id="g14764"
     inkscape:groupmode="layer"
     inkscape:label="background-49-publicdomainvectors.org [Converted]"
     transform="matrix(1.3333333,0,0,-1.3333333,0,816)"><g
       id="g14766"><g
         id="g14768"
         clip-path="url(#clipPath14772)"><path
           d="M 55.355,42.003 C 57.781,58.662 73.251,70.2 89.91,67.775 106.568,65.351 118.106,49.88 115.682,33.221 113.257,16.563 97.786,5.024 81.128,7.45 64.47,9.874 52.932,25.344 55.355,42.003"
           style="fill:#bfdf14;fill-opacity:1;fill-rule:nonzero;stroke:none"
           id="path14774"
           inkscape:connector-curvature="0" /><path
           d="M 213.461,42.003 C 215.886,58.662 231.355,70.2 248.015,67.775 264.673,65.351 276.211,49.88 273.786,33.221 271.361,16.563 255.891,5.024 239.232,7.45 222.574,9.874 211.036,25.344 213.461,42.003"
           style="fill:#bfdf14;fill-opacity:1;fill-rule:nonzero;stroke:none"
           id="path14776"
           inkscape:connector-curvature="0" /><path
           d="M 371.565,42.003 C 373.99,58.662 389.461,70.2 406.119,67.775 422.777,65.351 434.315,49.88 431.891,33.221 429.466,16.563 413.995,5.024 397.337,7.45 380.679,9.874 369.141,25.344 371.565,42.003"
           style="fill:#bfdf14;fill-opacity:1;fill-rule:nonzero;stroke:none"
           id="path14778"
           inkscape:connector-curvature="0" /><path
           d="M 529.67,42.003 C 532.095,58.662 547.565,70.2 564.224,67.775 580.882,65.351 592.42,49.88 589.995,33.221 587.57,16.563 572.1,5.024 555.441,7.45 538.783,9.874 527.245,25.344 529.67,42.003"
           style="fill:#bfdf14;fill-opacity:1;fill-rule:nonzero;stroke:none"
           id="path14780"
           inkscape:connector-curvature="0" /><path
           d="M 687.774,42.003 C 690.199,58.662 705.67,70.2 722.328,67.775 738.986,65.351 750.524,49.88 748.1,33.221 745.675,16.563 730.205,5.024 713.546,7.45 696.888,9.874 685.35,25.344 687.774,42.003"
           style="fill:#bfdf14;fill-opacity:1;fill-rule:nonzero;stroke:none"
           id="path14782"
           inkscape:connector-curvature="0" /><path
           d="m 55.355,176.66 c 2.426,16.659 17.896,28.197 34.555,25.773 16.658,-2.425 28.196,-17.896 25.772,-34.554 C 113.257,151.22 97.786,139.682 81.128,142.107 64.47,144.532 52.932,160.002 55.355,176.66"
           style="fill:#bfdf14;fill-opacity:1;fill-rule:nonzero;stroke:none"
           id="path14784"
           inkscape:connector-curvature="0" /><path
           d="m -0.408,139.038 c 1.613,0.025 3.247,-0.079 4.894,-0.318 16.659,-2.425 28.197,-17.895 25.772,-34.554 C 28.023,88.813 14.707,77.809 -0.408,78.076 Z"
           style="fill:#9c9a9b;fill-opacity:1;fill-rule:nonzero;stroke:none"
           id="path14786"
           inkscape:connector-curvature="0" /><path
           d="m 213.461,176.66 c 2.425,16.659 17.894,28.197 34.554,25.773 16.658,-2.425 28.196,-17.896 25.771,-34.554 -2.425,-16.659 -17.895,-28.197 -34.554,-25.772 -16.658,2.425 -28.196,17.895 -25.771,34.553"
           style="fill:#bfdf14;fill-opacity:1;fill-rule:nonzero;stroke:none"
           id="path14788"
           inkscape:connector-curvature="0" /><path
           d="m 128.037,112.947 c 2.425,16.658 17.896,28.197 34.554,25.773 16.658,-2.425 28.197,-17.895 25.772,-34.554 -2.425,-16.659 -17.895,-28.197 -34.554,-25.772 -16.659,2.424 -28.198,17.894 -25.772,34.553"
           style="fill:#9c9a9b;fill-opacity:1;fill-rule:nonzero;stroke:none"
           id="path14790"
           inkscape:connector-curvature="0" /><path
           d="m 371.565,176.66 c 2.425,16.659 17.896,28.197 34.554,25.773 16.658,-2.425 28.196,-17.896 25.772,-34.554 -2.425,-16.659 -17.896,-28.197 -34.554,-25.772 -16.658,2.425 -28.196,17.895 -25.772,34.553"
           style="fill:#bfdf14;fill-opacity:1;fill-rule:nonzero;stroke:none"
           id="path14792"
           inkscape:connector-curvature="0" /><path
           d="m 286.142,112.947 c 2.424,16.658 17.895,28.197 34.553,25.773 16.659,-2.425 28.198,-17.895 25.772,-34.554 -2.425,-16.659 -17.896,-28.197 -34.554,-25.772 -16.658,2.424 -28.196,17.894 -25.771,34.553"
           style="fill:#9c9a9b;fill-opacity:1;fill-rule:nonzero;stroke:none"
           id="path14794"
           inkscape:connector-curvature="0" /><path
           d="m 529.67,176.66 c 2.425,16.659 17.895,28.197 34.554,25.773 16.658,-2.425 28.196,-17.896 25.771,-34.554 -2.425,-16.659 -17.895,-28.197 -34.554,-25.772 -16.658,2.425 -28.196,17.895 -25.771,34.553"
           style="fill:#bfdf14;fill-opacity:1;fill-rule:nonzero;stroke:none"
           id="path14796"
           inkscape:connector-curvature="0" /><path
           d="m 444.246,112.947 c 2.425,16.658 17.896,28.197 34.554,25.773 16.658,-2.425 28.197,-17.895 25.771,-34.554 -2.424,-16.659 -17.894,-28.197 -34.553,-25.772 -16.659,2.424 -28.197,17.894 -25.772,34.553"
           style="fill:#9c9a9b;fill-opacity:1;fill-rule:nonzero;stroke:none"
           id="path14798"
           inkscape:connector-curvature="0" /><path
           d="m 687.774,176.66 c 2.425,16.659 17.896,28.197 34.554,25.773 16.658,-2.425 28.196,-17.896 25.772,-34.554 -2.425,-16.659 -17.895,-28.197 -34.554,-25.772 -16.658,2.425 -28.196,17.895 -25.772,34.553"
           style="fill:#bfdf14;fill-opacity:1;fill-rule:nonzero;stroke:none"
           id="path14800"
           inkscape:connector-curvature="0" /><path
           d="m 602.351,112.947 c 2.424,16.658 17.895,28.197 34.553,25.773 16.659,-2.425 28.198,-17.895 25.773,-34.554 -2.425,-16.659 -17.896,-28.197 -34.555,-25.772 -16.658,2.424 -28.196,17.894 -25.771,34.553"
           style="fill:#9c9a9b;fill-opacity:1;fill-rule:nonzero;stroke:none"
           id="path14802"
           inkscape:connector-curvature="0" /><path
           d="m 794.588,78.327 c -2.713,-0.354 -5.52,-0.347 -8.36,0.067 -16.66,2.424 -28.198,17.894 -25.773,34.553 2.404,16.518 17.636,28.002 34.133,25.831 z"
           style="fill:#9c9a9b;fill-opacity:1;fill-rule:nonzero;stroke:none"
           id="path14804"
           inkscape:connector-curvature="0" /><path
           d="m 55.355,311.317 c 2.426,16.661 17.896,28.198 34.555,25.773 16.658,-2.424 28.196,-17.895 25.772,-34.554 -2.425,-16.659 -17.896,-28.196 -34.554,-25.771 -16.658,2.424 -28.196,17.894 -25.773,34.552"
           style="fill:#bfdf14;fill-opacity:1;fill-rule:nonzero;stroke:none"
           id="path14806"
           inkscape:connector-curvature="0" /><path
           d="m -0.408,273.695 c 1.613,0.025 3.247,-0.079 4.894,-0.318 16.659,-2.425 28.197,-17.895 25.772,-34.554 -2.235,-15.353 -15.551,-26.357 -30.666,-26.09 z"
           style="fill:#9c9a9b;fill-opacity:1;fill-rule:nonzero;stroke:none"
           id="path14808"
           inkscape:connector-curvature="0" /><path
           d="m 213.461,311.317 c 2.425,16.661 17.894,28.198 34.554,25.773 16.658,-2.424 28.196,-17.895 25.771,-34.554 -2.425,-16.659 -17.895,-28.196 -34.554,-25.771 -16.658,2.424 -28.196,17.894 -25.771,34.552"
           style="fill:#bfdf14;fill-opacity:1;fill-rule:nonzero;stroke:none"
           id="path14810"
           inkscape:connector-curvature="0" /><path
           d="m 128.037,247.605 c 2.425,16.658 17.896,28.197 34.554,25.772 16.658,-2.425 28.197,-17.895 25.772,-34.554 -2.425,-16.659 -17.895,-28.197 -34.554,-25.772 -16.659,2.426 -28.198,17.895 -25.772,34.554"
           style="fill:#9c9a9b;fill-opacity:1;fill-rule:nonzero;stroke:none"
           id="path14812"
           inkscape:connector-curvature="0" /><path
           d="m 371.565,311.317 c 2.425,16.661 17.896,28.198 34.554,25.773 16.658,-2.424 28.196,-17.895 25.772,-34.554 -2.425,-16.659 -17.896,-28.196 -34.554,-25.771 -16.658,2.424 -28.196,17.894 -25.772,34.552"
           style="fill:#bfdf14;fill-opacity:1;fill-rule:nonzero;stroke:none"
           id="path14814"
           inkscape:connector-curvature="0" /><path
           d="m 286.142,247.605 c 2.424,16.658 17.895,28.197 34.553,25.772 16.659,-2.425 28.198,-17.895 25.772,-34.554 -2.425,-16.659 -17.896,-28.197 -34.554,-25.772 -16.658,2.426 -28.196,17.895 -25.771,34.554"
           style="fill:#9c9a9b;fill-opacity:1;fill-rule:nonzero;stroke:none"
           id="path14816"
           inkscape:connector-curvature="0" /><path
           d="m 529.67,311.317 c 2.425,16.661 17.895,28.198 34.554,25.773 16.658,-2.424 28.196,-17.895 25.771,-34.554 -2.425,-16.659 -17.895,-28.196 -34.554,-25.771 -16.658,2.424 -28.196,17.894 -25.771,34.552"
           style="fill:#bfdf14;fill-opacity:1;fill-rule:nonzero;stroke:none"
           id="path14818"
           inkscape:connector-curvature="0" /><path
           d="m 444.246,247.605 c 2.425,16.658 17.896,28.197 34.554,25.772 16.658,-2.425 28.197,-17.895 25.771,-34.554 -2.424,-16.659 -17.894,-28.197 -34.553,-25.772 -16.659,2.426 -28.197,17.895 -25.772,34.554"
           style="fill:#9c9a9b;fill-opacity:1;fill-rule:nonzero;stroke:none"
           id="path14820"
           inkscape:connector-curvature="0" /><path
           d="m 687.774,311.317 c 2.425,16.661 17.896,28.198 34.554,25.773 16.658,-2.424 28.196,-17.895 25.772,-34.554 -2.425,-16.659 -17.895,-28.196 -34.554,-25.771 -16.658,2.424 -28.196,17.894 -25.772,34.552"
           style="fill:#bfdf14;fill-opacity:1;fill-rule:nonzero;stroke:none"
           id="path14822"
           inkscape:connector-curvature="0" /><path
           d="m 602.351,247.605 c 2.424,16.658 17.895,28.197 34.553,25.772 16.659,-2.425 28.198,-17.895 25.773,-34.554 -2.425,-16.659 -17.896,-28.197 -34.555,-25.772 -16.658,2.426 -28.196,17.895 -25.771,34.554"
           style="fill:#9c9a9b;fill-opacity:1;fill-rule:nonzero;stroke:none"
           id="path14824"
           inkscape:connector-curvature="0" /><path
           d="m 794.588,212.984 c -2.713,-0.354 -5.52,-0.346 -8.36,0.067 -16.66,2.426 -28.198,17.895 -25.773,34.554 2.404,16.517 17.636,28.001 34.133,25.831 z"
           style="fill:#9c9a9b;fill-opacity:1;fill-rule:nonzero;stroke:none"
           id="path14826"
           inkscape:connector-curvature="0" /><path
           d="m 55.355,445.975 c 2.426,16.66 17.896,28.198 34.555,25.773 16.658,-2.425 28.196,-17.895 25.772,-34.555 -2.425,-16.659 -17.896,-28.196 -34.554,-25.771 -16.658,2.425 -28.196,17.895 -25.773,34.553"
           style="fill:#bfdf14;fill-opacity:1;fill-rule:nonzero;stroke:none"
           id="path14828"
           inkscape:connector-curvature="0" /><path
           d="m -0.408,408.353 c 1.613,0.025 3.247,-0.078 4.894,-0.318 C 21.145,405.609 32.683,390.14 30.258,373.48 28.023,358.126 14.707,347.123 -0.408,347.391 Z"
           style="fill:#9c9a9b;fill-opacity:1;fill-rule:nonzero;stroke:none"
           id="path14830"
           inkscape:connector-curvature="0" /><path
           d="m 213.461,445.975 c 2.425,16.66 17.894,28.198 34.554,25.773 16.658,-2.425 28.196,-17.895 25.771,-34.555 -2.425,-16.659 -17.895,-28.196 -34.554,-25.771 -16.658,2.425 -28.196,17.895 -25.771,34.553"
           style="fill:#bfdf14;fill-opacity:1;fill-rule:nonzero;stroke:none"
           id="path14832"
           inkscape:connector-curvature="0" /><path
           d="m 128.037,382.263 c 2.425,16.658 17.896,28.196 34.554,25.772 16.658,-2.426 28.197,-17.895 25.772,-34.555 -2.425,-16.659 -17.895,-28.197 -34.554,-25.772 -16.659,2.426 -28.198,17.896 -25.772,34.555"
           style="fill:#9c9a9b;fill-opacity:1;fill-rule:nonzero;stroke:none"
           id="path14834"
           inkscape:connector-curvature="0" /><path
           d="m 371.565,445.975 c 2.425,16.66 17.896,28.198 34.554,25.773 16.658,-2.425 28.196,-17.895 25.772,-34.555 -2.425,-16.659 -17.896,-28.196 -34.554,-25.771 -16.658,2.425 -28.196,17.895 -25.772,34.553"
           style="fill:#bfdf14;fill-opacity:1;fill-rule:nonzero;stroke:none"
           id="path14836"
           inkscape:connector-curvature="0" /><path
           d="m 286.142,382.263 c 2.424,16.658 17.895,28.196 34.553,25.772 16.659,-2.426 28.198,-17.895 25.772,-34.555 -2.425,-16.659 -17.896,-28.197 -34.554,-25.772 -16.658,2.426 -28.196,17.896 -25.771,34.555"
           style="fill:#9c9a9b;fill-opacity:1;fill-rule:nonzero;stroke:none"
           id="path14838"
           inkscape:connector-curvature="0" /><path
           d="m 529.67,445.975 c 2.425,16.66 17.895,28.198 34.554,25.773 16.658,-2.425 28.196,-17.895 25.771,-34.555 -2.425,-16.659 -17.895,-28.196 -34.554,-25.771 -16.658,2.425 -28.196,17.895 -25.771,34.553"
           style="fill:#bfdf14;fill-opacity:1;fill-rule:nonzero;stroke:none"
           id="path14840"
           inkscape:connector-curvature="0" /><path
           d="m 444.246,382.263 c 2.425,16.658 17.896,28.196 34.554,25.772 16.658,-2.426 28.197,-17.895 25.771,-34.555 -2.424,-16.659 -17.894,-28.197 -34.553,-25.772 -16.659,2.426 -28.197,17.896 -25.772,34.555"
           style="fill:#9c9a9b;fill-opacity:1;fill-rule:nonzero;stroke:none"
           id="path14842"
           inkscape:connector-curvature="0" /><path
           d="m 687.774,445.975 c 2.425,16.66 17.896,28.198 34.554,25.773 16.658,-2.425 28.196,-17.895 25.772,-34.555 -2.425,-16.659 -17.895,-28.196 -34.554,-25.771 -16.658,2.425 -28.196,17.895 -25.772,34.553"
           style="fill:#bfdf14;fill-opacity:1;fill-rule:nonzero;stroke:none"
           id="path14844"
           inkscape:connector-curvature="0" /><path
           d="m 602.351,382.263 c 2.424,16.658 17.895,28.196 34.553,25.772 16.659,-2.426 28.198,-17.895 25.773,-34.555 -2.425,-16.659 -17.896,-28.197 -34.555,-25.772 -16.658,2.426 -28.196,17.896 -25.771,34.555"
           style="fill:#9c9a9b;fill-opacity:1;fill-rule:nonzero;stroke:none"
           id="path14846"
           inkscape:connector-curvature="0" /><path
           d="m 794.588,347.642 c -2.713,-0.355 -5.52,-0.348 -8.36,0.066 -16.66,2.426 -28.198,17.896 -25.773,34.555 2.404,16.517 17.636,28.001 34.133,25.83 z"
           style="fill:#9c9a9b;fill-opacity:1;fill-rule:nonzero;stroke:none"
           id="path14848"
           inkscape:connector-curvature="0" /><path
           d="m 55.355,580.633 c 2.426,16.659 17.896,28.197 34.555,25.772 16.658,-2.425 28.196,-17.895 25.772,-34.554 -2.425,-16.659 -17.896,-28.197 -34.554,-25.772 -16.658,2.426 -28.196,17.896 -25.773,34.554"
           style="fill:#bfdf14;fill-opacity:1;fill-rule:nonzero;stroke:none"
           id="path14850"
           inkscape:connector-curvature="0" /><path
           d="m -0.408,543.01 c 1.613,0.025 3.247,-0.078 4.894,-0.318 16.659,-2.425 28.197,-17.895 25.772,-34.553 -2.235,-15.354 -15.551,-26.359 -30.666,-26.09 z"
           style="fill:#9c9a9b;fill-opacity:1;fill-rule:nonzero;stroke:none"
           id="path14852"
           inkscape:connector-curvature="0" /><path
           d="m 213.461,580.633 c 2.425,16.659 17.894,28.197 34.554,25.772 16.658,-2.425 28.196,-17.895 25.771,-34.554 -2.425,-16.659 -17.895,-28.197 -34.554,-25.772 -16.658,2.426 -28.196,17.896 -25.771,34.554"
           style="fill:#bfdf14;fill-opacity:1;fill-rule:nonzero;stroke:none"
           id="path14854"
           inkscape:connector-curvature="0" /><path
           d="m 128.037,516.92 c 2.425,16.658 17.896,28.196 34.554,25.772 16.658,-2.425 28.197,-17.895 25.772,-34.553 -2.425,-16.66 -17.895,-28.199 -34.554,-25.773 -16.659,2.425 -28.198,17.895 -25.772,34.554"
           style="fill:#9c9a9b;fill-opacity:1;fill-rule:nonzero;stroke:none"
           id="path14856"
           inkscape:connector-curvature="0" /><path
           d="m 371.565,580.633 c 2.425,16.659 17.896,28.197 34.554,25.772 16.658,-2.425 28.196,-17.895 25.772,-34.554 -2.425,-16.659 -17.896,-28.197 -34.554,-25.772 -16.658,2.426 -28.196,17.896 -25.772,34.554"
           style="fill:#bfdf14;fill-opacity:1;fill-rule:nonzero;stroke:none"
           id="path14858"
           inkscape:connector-curvature="0" /><path
           d="m 286.142,516.92 c 2.424,16.658 17.895,28.196 34.553,25.772 16.659,-2.425 28.198,-17.895 25.772,-34.553 -2.425,-16.66 -17.896,-28.199 -34.554,-25.773 -16.658,2.425 -28.196,17.895 -25.771,34.554"
           style="fill:#9c9a9b;fill-opacity:1;fill-rule:nonzero;stroke:none"
           id="path14860"
           inkscape:connector-curvature="0" /><path
           d="m 529.67,580.633 c 2.425,16.659 17.895,28.197 34.554,25.772 16.658,-2.425 28.196,-17.895 25.771,-34.554 -2.425,-16.659 -17.895,-28.197 -34.554,-25.772 -16.658,2.426 -28.196,17.896 -25.771,34.554"
           style="fill:#bfdf14;fill-opacity:1;fill-rule:nonzero;stroke:none"
           id="path14862"
           inkscape:connector-curvature="0" /><path
           d="m 444.246,516.92 c 2.425,16.658 17.896,28.196 34.554,25.772 16.658,-2.425 28.197,-17.895 25.771,-34.553 -2.424,-16.66 -17.894,-28.199 -34.553,-25.773 -16.659,2.425 -28.197,17.895 -25.772,34.554"
           style="fill:#9c9a9b;fill-opacity:1;fill-rule:nonzero;stroke:none"
           id="path14864"
           inkscape:connector-curvature="0" /><path
           d="m 687.774,580.633 c 2.425,16.659 17.896,28.197 34.554,25.772 16.658,-2.425 28.196,-17.895 25.772,-34.554 -2.425,-16.659 -17.895,-28.197 -34.554,-25.772 -16.658,2.426 -28.196,17.896 -25.772,34.554"
           style="fill:#bfdf14;fill-opacity:1;fill-rule:nonzero;stroke:none"
           id="path14866"
           inkscape:connector-curvature="0" /><path
           d="m 602.351,516.92 c 2.424,16.658 17.895,28.196 34.553,25.772 16.659,-2.425 28.198,-17.895 25.773,-34.553 -2.425,-16.66 -17.896,-28.199 -34.555,-25.773 -16.658,2.425 -28.196,17.895 -25.771,34.554"
           style="fill:#9c9a9b;fill-opacity:1;fill-rule:nonzero;stroke:none"
           id="path14868"
           inkscape:connector-curvature="0" /><path
           d="m 794.588,482.3 c -2.713,-0.355 -5.52,-0.347 -8.36,0.066 -16.66,2.425 -28.198,17.895 -25.773,34.554 2.404,16.518 17.636,28.001 34.133,25.83 z"
           style="fill:#9c9a9b;fill-opacity:1;fill-rule:nonzero;stroke:none"
           id="path14870"
           inkscape:connector-curvature="0" /></g></g></g></svg>